<svg width="674.901" height="71.203" viewBox="0 0 674.901 71.203" xmlns="http://www.w3.org/2000/svg"><g id="svgGroup" stroke-linecap="round" fill-rule="evenodd" font-size="9pt" stroke="#180042" stroke-width="0.25mm" fill="#180042" style="stroke:#180042;stroke-width:0.25mm;fill:#180042"><path d="M 479.5 29.501 L 458.4 29.501 Q 458.4 23.501 455.25 20.001 A 10.238 10.238 0 0 0 449.744 16.86 A 15.585 15.585 0 0 0 446.3 16.501 Q 441.192 16.501 438.148 18.942 A 9.709 9.709 0 0 0 436.45 20.701 A 14.295 14.295 0 0 0 434.242 25.185 Q 433.653 27.132 433.432 29.464 A 31.192 31.192 0 0 0 433.3 32.401 L 433.3 38.801 Q 433.3 44.166 434.956 47.876 A 13.655 13.655 0 0 0 436.45 50.451 A 10.127 10.127 0 0 0 442.622 54.346 A 16.038 16.038 0 0 0 446.1 54.701 Q 450.575 54.701 453.534 53.088 A 9.852 9.852 0 0 0 455.8 51.401 Q 458.934 48.267 459.092 42.697 A 21.094 21.094 0 0 0 459.1 42.101 L 479.5 42.101 A 36.717 36.717 0 0 1 478.524 50.83 A 24.143 24.143 0 0 1 470.85 63.701 Q 463.552 70.029 451.163 71.018 A 59.894 59.894 0 0 1 446.4 71.201 Q 434.117 71.201 425.999 66.818 A 26.978 26.978 0 0 1 419.75 62.201 Q 411.98 54.474 410.881 40.409 A 61.736 61.736 0 0 1 410.7 35.601 Q 410.7 18.001 419.75 9.001 Q 427.452 1.341 441.347 0.201 A 61.783 61.783 0 0 1 446.4 0.001 A 49.621 49.621 0 0 1 456.163 0.905 Q 464.759 2.631 470.6 7.651 Q 479.5 15.301 479.5 29.501 Z M 184.9 33.001 L 166.4 33.001 A 4.998 4.998 0 0 0 166.12 31.281 Q 165.629 29.932 164.274 29.147 A 5.747 5.747 0 0 0 163.8 28.901 Q 162 27.901 159.3 27.901 Q 155.127 27.901 153.373 29.043 A 2.567 2.567 0 0 0 152.1 31.301 A 2.386 2.386 0 0 0 153.202 33.339 Q 153.76 33.732 154.6 34.001 Q 156.485 34.604 160.188 35.264 A 134.649 134.649 0 0 0 162.8 35.701 A 123.973 123.973 0 0 1 167.727 36.5 Q 170.064 36.931 172.068 37.413 A 57.464 57.464 0 0 1 174.5 38.051 Q 179.2 39.401 182.7 42.851 A 11.291 11.291 0 0 1 185.708 48.238 Q 186.165 50.04 186.198 52.176 A 21.585 21.585 0 0 1 186.2 52.501 A 21.077 21.077 0 0 1 185.499 58.117 A 14.053 14.053 0 0 1 178.65 66.901 A 29.814 29.814 0 0 1 171.154 69.841 Q 167.616 70.733 163.444 71.04 A 61.969 61.969 0 0 1 158.9 71.201 A 44.82 44.82 0 0 1 148.451 70.011 A 40.678 40.678 0 0 1 145.7 69.251 Q 139.5 67.301 135.6 63.201 A 14.014 14.014 0 0 1 131.795 54.716 A 18.812 18.812 0 0 1 131.7 52.801 L 150.2 52.801 L 150.2 53.201 A 6.632 6.632 0 0 0 150.521 55.126 A 4.747 4.747 0 0 0 153.05 57.951 Q 155.8 59.301 158.9 59.301 Q 167.2 59.301 167.2 55.401 Q 167.2 53.569 165.018 52.66 A 7.275 7.275 0 0 0 164.6 52.501 A 22.93 22.93 0 0 0 163.094 52.045 Q 161.368 51.579 158.804 51.087 A 128.198 128.198 0 0 0 156.1 50.601 Q 151.33 49.795 147.711 48.898 A 61.008 61.008 0 0 1 144.45 48.001 Q 139.9 46.601 136.5 43.251 A 10.984 10.984 0 0 1 133.558 37.95 Q 133.1 36.104 133.1 33.901 A 19.955 19.955 0 0 1 133.782 28.51 A 13.451 13.451 0 0 1 140.45 20.101 Q 147.8 16.001 159.6 16.001 A 45.184 45.184 0 0 1 167.676 16.686 Q 172.497 17.562 176.441 19.558 A 27.651 27.651 0 0 1 177.55 20.151 A 14.76 14.76 0 0 1 182.24 24.18 Q 184.9 27.767 184.9 33.001 Z M 607.1 33.001 L 588.6 33.001 A 4.998 4.998 0 0 0 588.32 31.281 Q 587.829 29.932 586.474 29.147 A 5.747 5.747 0 0 0 586 28.901 Q 584.2 27.901 581.5 27.901 Q 577.327 27.901 575.573 29.043 A 2.567 2.567 0 0 0 574.3 31.301 A 2.386 2.386 0 0 0 575.402 33.339 Q 575.96 33.732 576.8 34.001 Q 578.685 34.604 582.388 35.264 A 134.649 134.649 0 0 0 585 35.701 A 123.973 123.973 0 0 1 589.927 36.5 Q 592.264 36.931 594.268 37.413 A 57.464 57.464 0 0 1 596.7 38.051 Q 601.4 39.401 604.9 42.851 A 11.291 11.291 0 0 1 607.908 48.238 Q 608.365 50.04 608.398 52.176 A 21.585 21.585 0 0 1 608.4 52.501 A 21.077 21.077 0 0 1 607.699 58.117 A 14.053 14.053 0 0 1 600.85 66.901 A 29.814 29.814 0 0 1 593.354 69.841 Q 589.816 70.733 585.644 71.04 A 61.969 61.969 0 0 1 581.1 71.201 A 44.82 44.82 0 0 1 570.651 70.011 A 40.678 40.678 0 0 1 567.9 69.251 Q 561.7 67.301 557.8 63.201 A 14.014 14.014 0 0 1 553.995 54.716 A 18.812 18.812 0 0 1 553.9 52.801 L 572.4 52.801 L 572.4 53.201 A 6.632 6.632 0 0 0 572.721 55.126 A 4.747 4.747 0 0 0 575.25 57.951 Q 578 59.301 581.1 59.301 Q 589.4 59.301 589.4 55.401 Q 589.4 53.569 587.218 52.66 A 7.275 7.275 0 0 0 586.8 52.501 A 22.93 22.93 0 0 0 585.294 52.045 Q 583.568 51.579 581.004 51.087 A 128.198 128.198 0 0 0 578.3 50.601 Q 573.53 49.795 569.911 48.898 A 61.008 61.008 0 0 1 566.65 48.001 Q 562.1 46.601 558.7 43.251 A 10.984 10.984 0 0 1 555.758 37.95 Q 555.3 36.104 555.3 33.901 A 19.955 19.955 0 0 1 555.982 28.51 A 13.451 13.451 0 0 1 562.65 20.101 Q 570 16.001 581.8 16.001 A 45.184 45.184 0 0 1 589.876 16.686 Q 594.697 17.562 598.641 19.558 A 27.651 27.651 0 0 1 599.75 20.151 A 14.76 14.76 0 0 1 604.44 24.18 Q 607.1 27.767 607.1 33.001 Z M 122.4 70.001 L 106.1 70.001 L 104.8 62.001 Q 101.7 66.301 96.65 68.751 Q 91.6 71.201 86 71.201 A 26.38 26.38 0 0 1 80.699 70.703 Q 77.572 70.061 75.192 68.591 A 13.692 13.692 0 0 1 72.2 66.101 A 16.481 16.481 0 0 1 68.768 59.933 Q 67.974 57.422 67.72 54.383 A 35.781 35.781 0 0 1 67.6 51.401 L 67.6 17.201 L 87.5 17.201 L 87.5 49.001 A 10.757 10.757 0 0 0 87.726 51.27 Q 88.06 52.817 88.886 53.983 A 6.562 6.562 0 0 0 89.25 54.451 A 5.701 5.701 0 0 0 92.68 56.371 A 8.479 8.479 0 0 0 94.2 56.501 Q 97.9 56.501 100.2 54.101 A 8.182 8.182 0 0 0 102.499 48.31 A 10.573 10.573 0 0 0 102.5 48.201 L 102.5 17.201 L 122.4 17.201 L 122.4 70.001 Z M 367 35.801 L 367 70.001 L 347.1 70.001 L 347.1 38.201 A 10.757 10.757 0 0 0 346.874 35.932 Q 346.54 34.385 345.714 33.219 A 6.562 6.562 0 0 0 345.35 32.751 A 5.701 5.701 0 0 0 341.92 30.831 A 8.479 8.479 0 0 0 340.4 30.701 Q 336.7 30.701 334.4 33.101 A 8.182 8.182 0 0 0 332.101 38.892 A 10.573 10.573 0 0 0 332.1 39.001 L 332.1 70.001 L 312.2 70.001 L 312.2 17.201 L 328.5 17.201 L 329.8 25.201 A 21.754 21.754 0 0 1 336.718 19.153 A 25.749 25.749 0 0 1 337.95 18.501 Q 343 16.001 348.6 16.001 A 26.38 26.38 0 0 1 353.901 16.499 Q 357.028 17.141 359.408 18.611 A 13.692 13.692 0 0 1 362.4 21.101 A 16.481 16.481 0 0 1 365.832 27.269 Q 366.626 29.78 366.88 32.819 A 35.781 35.781 0 0 1 367 35.801 Z M 543.4 33.201 L 543.4 53.801 A 5.929 5.929 0 0 0 543.522 55.036 Q 543.697 55.86 544.126 56.495 A 3.705 3.705 0 0 0 544.2 56.601 A 2.593 2.593 0 0 0 545.938 57.648 A 3.974 3.974 0 0 0 546.6 57.701 L 550.2 57.701 L 550.2 69.201 Q 549.9 69.401 548.65 69.851 A 13.797 13.797 0 0 1 547.766 70.132 Q 546.834 70.398 545.535 70.664 A 51.08 51.08 0 0 1 545.1 70.751 Q 542.972 71.167 540.244 71.199 A 38.963 38.963 0 0 1 539.8 71.201 A 31.732 31.732 0 0 1 535.896 70.975 Q 532.652 70.572 530.25 69.451 A 12.599 12.599 0 0 1 527.723 67.913 A 8.868 8.868 0 0 1 525.1 64.601 Q 521.3 67.601 516.6 69.401 A 26.075 26.075 0 0 1 511.328 70.779 Q 508.652 71.201 505.6 71.201 A 34.309 34.309 0 0 1 498.811 70.59 Q 487 68.195 487 56.401 A 22.81 22.81 0 0 1 487.436 51.792 Q 488.005 49.039 489.313 46.938 A 12.178 12.178 0 0 1 491.15 44.651 Q 495.3 40.601 503.1 39.101 A 69.912 69.912 0 0 1 509.03 38.247 Q 515.231 37.601 523.5 37.601 L 523.5 35.001 A 7.09 7.09 0 0 0 523.246 33.047 A 5.073 5.073 0 0 0 521.35 30.301 A 7.764 7.764 0 0 0 518.491 28.996 Q 517.261 28.701 515.8 28.701 A 14.678 14.678 0 0 0 513.25 28.912 Q 511.716 29.182 510.45 29.801 Q 508.2 30.901 508.2 33.301 L 508.2 33.701 L 488.6 33.701 A 4.08 4.08 0 0 1 488.547 33.35 Q 488.507 32.98 488.501 32.471 A 15.175 15.175 0 0 1 488.5 32.301 A 12.805 12.805 0 0 1 493.209 22.17 A 19.096 19.096 0 0 1 495.65 20.401 A 25.321 25.321 0 0 1 501.877 17.72 Q 507.741 16.015 515.97 16.001 A 80.212 80.212 0 0 1 516.1 16.001 A 59.643 59.643 0 0 1 523.887 16.48 Q 527.999 17.022 531.428 18.179 A 29 29 0 0 1 535.8 20.051 A 14.434 14.434 0 0 1 540.721 24.175 Q 543.4 27.798 543.4 33.201 Z M 674.9 43.601 L 674.9 47.001 L 635.3 47.001 A 20.347 20.347 0 0 0 635.537 50.215 Q 635.807 51.9 636.385 53.246 A 8.781 8.781 0 0 0 637.85 55.601 Q 639.974 58.016 644.144 58.42 A 18.24 18.24 0 0 0 645.9 58.501 A 18.983 18.983 0 0 0 648.503 58.335 Q 649.841 58.149 650.917 57.756 A 7.131 7.131 0 0 0 653.25 56.401 A 6.93 6.93 0 0 0 655.559 51.706 A 9.651 9.651 0 0 0 655.6 50.801 L 674.9 50.801 A 20.212 20.212 0 0 1 673.786 57.66 A 17.233 17.233 0 0 1 667.6 65.801 Q 660.3 71.201 646.3 71.201 Q 631.6 71.201 623.5 64.351 Q 615.999 58.008 615.444 45.619 A 45.106 45.106 0 0 1 615.4 43.601 Q 615.4 32.945 620.25 26.341 A 21.285 21.285 0 0 1 623.3 23.001 A 26.297 26.297 0 0 1 633.735 17.438 Q 637.693 16.315 642.403 16.07 A 51.789 51.789 0 0 1 645.1 16.001 A 49.616 49.616 0 0 1 653.494 16.665 Q 661.991 18.126 667.25 22.801 Q 673.925 28.734 674.776 40.15 A 46.461 46.461 0 0 1 674.9 43.601 Z M 0 46.101 L 0 45.201 L 20.7 45.201 L 20.7 46.001 A 19.968 19.968 0 0 0 20.823 48.307 Q 21.165 51.232 22.45 52.701 A 5.492 5.492 0 0 0 25.004 54.318 Q 25.915 54.604 27.023 54.676 A 11.9 11.9 0 0 0 27.8 54.701 Q 31.4 54.701 33.15 52.701 A 5.78 5.78 0 0 0 34.181 50.918 Q 34.802 49.275 34.887 46.804 A 23.394 23.394 0 0 0 34.9 46.001 L 34.9 1.201 L 57 1.201 L 57 46.101 A 35.947 35.947 0 0 1 56.352 53.161 Q 54.818 60.812 49.65 65.101 Q 43.807 69.95 33.889 70.945 A 54.071 54.071 0 0 1 28.5 71.201 Q 14.7 71.201 7.35 65.101 Q 0.782 59.65 0.083 48.77 A 41.64 41.64 0 0 1 0 46.101 Z M 219.6 17.201 L 230.8 17.201 L 230.8 30.701 L 219.6 30.701 L 219.6 50.801 A 17.139 17.139 0 0 0 219.692 52.648 Q 219.933 54.859 220.8 56.051 A 3.535 3.535 0 0 0 222.356 57.232 Q 222.978 57.489 223.77 57.605 A 9.873 9.873 0 0 0 225.2 57.701 L 230.8 57.701 L 230.8 69.401 A 22.689 22.689 0 0 1 228.894 69.937 Q 227.964 70.159 226.891 70.35 A 51.419 51.419 0 0 1 224.6 70.701 A 68.586 68.586 0 0 1 221.891 71.006 Q 219.75 71.201 218 71.201 Q 212.272 71.201 208.26 69.845 A 15.881 15.881 0 0 1 204.45 68.001 Q 200.164 65.114 199.745 58.562 A 22.922 22.922 0 0 1 199.7 57.101 L 199.7 30.701 L 192.3 30.701 L 192.3 17.201 L 200.5 17.201 L 204.8 1.201 L 219.6 1.201 L 219.6 17.201 Z M 297.8 70.001 L 275.7 70.001 L 275.7 1.201 L 297.8 1.201 L 297.8 70.001 Z M 635.4 37.601 L 654.8 37.601 Q 654.8 33.501 652.45 31.101 A 7.707 7.707 0 0 0 648.68 29.011 Q 647.449 28.711 645.994 28.701 A 14.586 14.586 0 0 0 645.9 28.701 Q 637.898 28.701 635.911 35.15 A 14.26 14.26 0 0 0 635.4 37.601 Z M 523.5 51.501 L 523.5 47.001 A 62.327 62.327 0 0 0 519.127 47.143 Q 513.877 47.514 510.95 48.851 A 10.772 10.772 0 0 0 509.184 49.85 Q 506.9 51.473 506.9 53.801 A 5.132 5.132 0 0 0 507.401 56.147 Q 508.49 58.295 511.942 58.705 A 14.964 14.964 0 0 0 513.7 58.801 A 12.236 12.236 0 0 0 517.839 58.118 A 11.062 11.062 0 0 0 520.55 56.701 A 8.231 8.231 0 0 0 522.168 55.215 A 5.713 5.713 0 0 0 523.5 51.501 Z" vector-effect="non-scaling-stroke"/></g></svg>